<?xml version="1.0" encoding="UTF-8" standalone="no"?>
<svg
   xmlns:dc="http://purl.org/dc/elements/1.1/"
   xmlns:cc="http://creativecommons.org/ns#"
   xmlns:rdf="http://www.w3.org/1999/02/22-rdf-syntax-ns#"
   xmlns:svg="http://www.w3.org/2000/svg"
   xmlns="http://www.w3.org/2000/svg"
   width="236"
   height="32"
   version="1.1"
   id="svg4">
  <style
     id="style23"></style>
  <metadata
     id="metadata10">
    <rdf:RDF>
      <cc:Work
         rdf:about="">
        <dc:format>image/svg+xml</dc:format>
        <dc:type
           rdf:resource="http://purl.org/dc/dcmitype/StillImage" />
        <dc:title></dc:title>
      </cc:Work>
    </rdf:RDF>
  </metadata>
  <defs
     id="defs8" />
  <g
     style="fill:#505b79;fill-opacity:1"
     transform="rotate(-18.45149)">
    <path
       d="m 4.3002669,29.742692 q 0.105498,0 0.105498,0.210996 0,0.210996 -0.492324,0.70332 l -0.35166,0.52749 q -0.949482,1.441806 -1.40664,1.687968 -0.421992,0.246162 -0.70332,0.246162 -0.246162,0 -0.808818,-0.140664 -0.52749001,-0.105498 -0.56265601,-0.246162 0,-0.140664 0,-0.597822 0,-0.457158 0.66815401,-2.180292 0.668154,-1.7583 1.547304,-3.446268 1.617636,-3.16494 3.2352721,-6.118884 0.316494,-0.597822 0.316494,-0.914316 0,-0.35166 -0.105498,-0.52749 0.210996,-1.019814 1.723134,-2.602284 1.547304,-1.58247 2.81328,-1.58247 0.562656,0 1.371474,0.457158 0.808818,0.421992 0.70332,1.125312 -0.246162,-0.17583 -0.457158,-0.17583 -1.476972,0 -3.69243,2.883612 -3.6924301,4.782576 -6.2595481,10.971792 -0.281328,0.738486 -0.281328,1.019814 0,0.246162 0,0.316494 0.140664,0.35166 0.562656,0.210996 0.457158,-0.140664 0.843984,-0.632988 0.914316,-1.195644 1.23081,-1.195644 z M 17.698513,14.586146 q 0.281328,-0.457158 0.843984,-1.05498 -1.547304,-0.03517 -4.641912,-0.281328 -3.833094,-0.316494 -5.239734,-0.316494 -1.40664,0 -3.9034261,0.246162 -3.34077,0.457158 -5.767224,1.863798 -2.391288,1.371474 -2.848446,3.481434 -0.070332,0.210996 -0.070332,0.52749 0,0.281328 0.17583,0.70332 0.210996,0.421992 0.492324,0.668154 0.281328,0.246162 0.843984,0.597822 0.597822,0.35166 0.773652,0.52749 0.210996,0.140664 0.070332,0.246162 -0.105498,0.105498 -0.246162,0.105498 -0.105498,0 -0.246162,-0.03517 -1.195644,-0.35166 -2.0396281,-1.301142 -0.808818,-0.984648 -0.808818,-1.617636 0,-0.668154 0.17583,-1.125312 0,-0.386826 0.035166,-0.562656 0.52749,-2.496786 3.2001061,-3.86826 3.200106,-1.652802 7.8771841,-1.652802 2.848446,0 7.455192,0.632988 4.641912,0.632988 5.169402,0.632988 0.949482,-1.05498 1.441806,-1.090146 0.17583,-0.03517 0.492324,-0.03517 0.316494,0 0.562656,0.246162 0.246162,0.210996 0.246162,0.457158 0,0.246162 -0.210996,0.492324 -0.210996,0.246162 -0.87915,0.738486 -0.632988,0.457158 -1.019814,0.843984 -1.828632,1.828632 -1.828632,3.200106 0,0.597822 0.246162,0.984648 0.246162,0.35166 -0.03517,0.52749 -0.281328,0.140664 -0.597822,-0.246162 -0.35166,-0.281328 -0.35166,-1.793466 0,-1.512138 0.632988,-2.742948 z" />
    <path
       d="m 20.052438,11.21021 q 0.632988,-0.246162 1.090146,-0.246162 1.547304,0 2.039628,0.843984 0.281328,0.421992 0.281328,0.738486 0,2.391288 -4.008924,6.013386 -3.551766,3.129774 -6.540876,5.380398 -0.984649,2.215458 -2.039629,5.45073 1.265977,-1.547304 3.200107,-3.586932 3.903426,-4.04409 5.45073,-4.04409 0.773652,0 0.808818,0.773652 0.07033,0.808818 -0.35166,1.547304 -0.386826,0.738486 -0.738486,1.371474 -1.652802,2.742948 -1.652802,4.888074 0,0.70332 0.281328,1.019814 0.492324,0.562656 1.40664,0.07033 0.914316,-0.492324 2.531952,-1.969296 1.652802,-1.476972 2.672616,-2.883612 0.17583,-0.17583 0.316494,-0.07033 0.17583,0.07033 0.17583,0.17583 0,0.07033 -0.07033,0.17583 -0.52749,0.949482 -1.898964,2.426454 -1.371474,1.441806 -2.215458,2.074794 -1.617636,1.23081 -3.094608,1.23081 -1.336308,0 -1.793466,-1.336308 -0.105498,-0.316494 -0.105498,-0.738486 0,-0.457158 0.07033,-0.949482 0.17583,-1.476972 1.863798,-4.606746 0.35166,-0.632988 0.35166,-0.87915 0,-0.281328 -0.281328,-0.281328 -0.562656,0 -2.180292,1.40664 -1.090146,1.019814 -3.235272,3.86826 -2.109961,2.81328 -2.3912885,2.98911 -1.265976,0.632988 -1.58247,0.632988 -0.281328,0 -0.316494,-0.105498 -0.035166,-0.07033 0.035166,-0.210996 0.070332,-0.140664 0.562656,-1.547304 1.6528015,-4.677078 2.2506235,-6.189216 -1.1604775,1.476972 -2.8836115,3.34077 -0.281328,0.281328 -0.281328,-0.105498 0,-0.421992 0.316494,-0.843984 0.316494,-0.421992 1.301142,-1.617636 1.0198135,-1.23081 1.4418055,-1.828632 -0.316494,-0.17583 -0.35166,-0.492324 0,-0.316494 0.210996,-0.421992 0.246162,-0.140664 0.773652,0.07033 0.35166,-0.492324 0.632989,-1.090146 4.184754,-9.002496 7.947516,-10.444302 z m 1.969296,2.63745 q 0.457158,-0.843984 0.457158,-1.40664 0,-0.597822 -0.52749,-0.597822 -0.492324,0 -1.336308,0.632988 -3.86826,2.953944 -6.998034,9.881646 2.28579,-1.476972 4.782576,-3.938592 2.496786,-2.46162 3.622098,-4.57158 z" />
    <path
       d="m 32.117123,21.549014 q 1.898964,0 1.898964,1.828632 0,0.949482 -0.52749,1.547304 -0.87915,1.301142 -2.848446,2.28579 -1.969296,0.949482 -3.34077,1.05498 -0.492324,0.03517 -0.52749,-0.281328 -0.03517,-0.140664 0.07033,-0.17583 0.140664,-0.03517 0.210996,-0.03517 0.808818,-0.07033 2.074794,-0.773652 2.356122,-1.265976 3.446268,-2.602284 0.457158,-0.632988 0.457158,-1.195644 0,-0.597822 -0.562656,-0.597822 -0.457158,0 -1.23081,0.386826 -1.652802,0.773652 -3.481434,2.707782 -1.828632,1.898964 -2.391288,3.727596 -0.17583,0.562656 -0.17583,1.125312 0,0.52749 0.457158,1.019814 0.457158,0.492324 1.40664,0.492324 1.05498,0 2.426454,-0.562656 3.973758,-1.617636 6.118884,-4.888074 0.210996,-0.281328 0.386826,-0.105498 0.140664,0.07033 0.140664,0.17583 0,0.105498 -0.105498,0.246162 -1.05498,1.7583 -2.672616,3.129774 -3.129774,2.672616 -6.083718,2.672616 -2.531952,0 -3.551766,-1.512138 -0.386826,-0.597822 -0.386826,-1.441806 0,-0.843984 0.457158,-2.004462 0.87915,-2.004462 3.762762,-4.114422 2.883612,-2.10996 4.57158,-2.10996 z" />
  </g>
  <g
     style="fill:#87decd;fill-opacity:1;stroke:#505b79;stroke-width:3.464;stroke-linecap:round;stroke-linejoin:miter;stroke-miterlimit:4;stroke-dasharray:none;stroke-opacity:1;paint-order:stroke markers fill">
    <path
       d="M 46.337488,16.406651 H 44.47369 v 11.78061 h 2.28579 v 0.668154 H 35.33053 v -0.668154 h 2.28579 V 4.9073691 h -2.28579 v -0.668154 h 10.620132 q 4.57158,0 6.470544,0.492324 1.93413,0.457158 2.707782,1.125312 1.687968,1.371474 1.687968,4.3605839 0,2.98911 -1.476972,4.290252 -1.476972,1.265976 -4.501248,1.512138 v 0.105498 q 2.848446,0.386826 3.973758,1.687968 1.125312,1.301142 1.125312,4.360584 v 1.863798 q 0,1.828632 0.17583,2.46162 0.210996,0.632988 0.843984,0.632988 0.632988,0 0.984648,-0.562656 0.386826,-0.597822 0.70332,-2.46162 l 0.597822,0.07033 q -0.386826,2.98911 -1.371474,4.008924 -0.949482,1.019814 -3.833094,1.019814 -2.883612,0 -4.114422,-1.336308 -1.195644,-1.371474 -1.195644,-5.09907 v -2.567118 q 0,-1.969296 -0.52749,-2.883612 -0.492324,-0.914316 -1.863798,-0.914316 z M 44.47369,4.9073691 V 15.738497 h 1.125312 q 2.004462,0 2.953944,-1.23081 0.984648,-1.23081 0.984648,-4.008924 V 9.4789491 q 0,-2.778114 -0.949482,-3.657264 -0.914316,-0.914316 -2.953944,-0.914316 z" />
    <path
       d="m 70.998908,29.207075 q -4.536414,0 -6.822204,-2.320956 -2.250624,-2.356122 -2.250624,-6.50571 0,-4.184754 2.531952,-6.400212 2.567118,-2.215458 6.50571,-2.215458 7.982682,0 7.666188,8.017848 h -9.916812 v 1.371474 q 0,3.446268 0.87915,5.204568 0.87915,1.7583 3.059442,1.7583 4.079256,0 5.345232,-4.360584 l 0.632988,0.105498 q -0.668154,2.531952 -2.426454,3.938592 -1.723134,1.40664 -5.204568,1.40664 z M 68.748284,19.079267 h 3.622098 v -1.723134 q 0,-2.848446 -0.35166,-3.86826 -0.316494,-1.05498 -1.336308,-1.05498 -0.984648,0 -1.476972,1.125312 -0.457158,1.090146 -0.457158,3.797928 z" />
    <path
       d="m 81.685141,12.116399 h 8.475006 v 3.235272 q 0.562656,-1.617636 1.723134,-2.602284 1.160478,-0.984648 3.5166,-0.984648 5.450729,0 5.450729,5.872722 v 10.584966 h 1.9693 v 0.632988 h -9.951981 v -0.632988 h 1.441806 v -11.42895 q 0,-2.10996 -0.281328,-2.707782 -0.281328,-0.632988 -1.019814,-0.632988 -1.125312,0 -2.004462,1.476972 -0.843984,1.476972 -0.843984,3.586932 v 9.705816 h 1.512138 v 0.632988 h -9.987144 v -0.632988 h 1.93413 v -15.47304 h -1.93413 z" />
    <path
       d="m 116.34085,21.927713 v -2.98911 q 0,-3.411102 -0.38683,-4.958406 -0.35166,-1.58247 -1.68797,-1.58247 -0.77365,0 -1.26597,0.457158 -0.45716,0.421992 -0.66816,1.441806 -0.31649,1.58247 -0.31649,4.817742 v 2.742948 q 0,3.833094 0.211,4.606746 0.24616,0.773652 0.49232,1.265976 0.38683,0.843984 1.51214,0.843984 1.37147,0 1.79346,-1.58247 0.3165,-1.125312 0.3165,-5.063904 z m -2.18029,7.279362 q -4.39575,0 -6.64638,-2.250624 -2.25062,-2.250624 -2.25062,-6.435378 0,-4.21992 2.39129,-6.470544 2.42645,-2.28579 6.78703,-2.28579 4.36059,0 6.50571,2.10996 2.14513,2.074794 2.14513,6.365046 0,8.96733 -8.93216,8.96733 z" />
    <path
       d="m 124.56381,12.749387 v -0.632988 h 10.51464 v 0.632988 h -2.21546 l 4.21992,11.675112 3.79793,-11.675112 h -2.35613 v -0.632988 h 4.74741 v 0.632988 h -1.5473 l -5.20457,16.106028 h -4.00892 l -6.50571,-16.106028 z" />
    <path
       d="m 152.73909,20.591405 h 1.01981 v -2.707782 q 0,-3.34077 -0.38683,-4.466082 -0.35166,-1.160478 -1.40664,-1.160478 -0.63298,0 -1.16047,0.35166 -0.49233,0.316494 -0.49233,0.914316 0,0.562656 0.211,1.160478 h 0.87915 q 0.28133,0.738486 0.28133,1.793466 0,1.019814 -0.87915,1.793466 -0.87915,0.738486 -2.21546,0.738486 -3.02428,0 -3.02428,-2.918778 0,-4.325418 7.3497,-4.325418 4.18475,0 5.76722,1.441806 1.61764,1.40664 1.61764,5.204568 v 7.138698 q 0,1.828632 1.01981,1.828632 1.19564,0 1.40664,-3.622098 l 0.52749,0.03517 q -0.14066,3.094608 -1.16048,4.255086 -1.01981,1.160478 -3.34077,1.160478 -4.21992,0 -4.85291,-2.602284 -0.45715,1.336308 -1.37147,1.969296 -0.91432,0.632988 -2.67262,0.632988 -5.20456,0 -5.20456,-4.255086 0,-2.496786 1.96929,-3.411102 2.00446,-0.949482 6.11889,-0.949482 z m -1.40664,4.325418 q 0,1.828632 0.17583,2.356122 0.21099,0.52749 0.73848,0.52749 0.56266,0 1.01982,-0.87915 0.49232,-0.914316 0.49232,-2.496786 v -3.270438 h -0.24616 q -2.18029,0 -2.18029,3.200106 z" />
    <path
       d="m 166.54026,23.826677 v -11.07729 h -1.93413 v -0.632988 h 1.93413 V 7.5799851 l 6.54087,-1.617636 v 6.1540499 h 4.57158 v 0.632988 h -4.57158 v 11.850942 q 0,1.652802 0.3165,2.426454 0.35166,0.773652 1.40664,0.773652 1.05498,0 1.82863,-1.05498 0.80882,-1.05498 1.05498,-2.883612 l 0.59782,0.07033 q -0.28133,2.426454 -1.5473,3.86826 -1.26598,1.40664 -4.18476,1.40664 -2.91877,0 -4.46608,-1.160478 -1.5473,-1.160478 -1.5473,-4.21992 z" />
    <path
       d="m 191.74675,21.927713 v -2.98911 q 0,-3.411102 -0.38683,-4.958406 -0.35166,-1.58247 -1.68797,-1.58247 -0.77365,0 -1.26597,0.457158 -0.45716,0.421992 -0.66816,1.441806 -0.31649,1.58247 -0.31649,4.817742 v 2.742948 q 0,3.833094 0.21099,4.606746 0.24617,0.773652 0.49233,1.265976 0.38682,0.843984 1.51214,0.843984 1.37147,0 1.79346,-1.58247 0.3165,-1.125312 0.3165,-5.063904 z m -2.1803,7.279362 q -4.39575,0 -6.64637,-2.250624 -2.25062,-2.250624 -2.25062,-6.435378 0,-4.21992 2.39128,-6.470544 2.42646,-2.28579 6.78704,-2.28579 4.36059,0 6.50571,2.10996 2.14513,2.074794 2.14513,6.365046 0,8.96733 -8.93217,8.96733 z" />
    <path
       d="m 212.95971,13.101047 q -1.30114,0 -2.28579,1.687968 -0.98464,1.687968 -0.98464,4.008924 v 9.424488 h 2.49678 v 0.632988 h -10.97179 v -0.632988 h 1.93413 v -15.47304 h -1.93413 v -0.632988 h 8.47501 v 3.375936 q 0.45715,-1.793466 1.7583,-2.742948 1.30114,-0.984648 2.95394,-0.984648 1.6528,0 2.67262,0.949482 1.05498,0.914316 1.05498,2.63745 0,1.687968 -0.77366,2.602284 -0.77365,0.914316 -2.39128,0.914316 -1.58247,0 -2.35613,-1.05498 -0.73848,-1.05498 -0.17583,-2.918778 h 1.26598 q 0.87915,-1.793466 -0.73849,-1.793466 z" />
    <path
       d="m 220.72002,29.207075 v -6.294714 h 0.42199 q 0.91432,3.059442 2.46162,4.290252 1.5473,1.23081 3.86826,1.23081 3.58693,0 3.58693,-2.28579 0,-0.984648 -0.87915,-1.476972 -1.37147,-0.773652 -3.5166,-1.195644 -2.39129,-0.632988 -4.00892,-1.687968 -1.93413,-1.265976 -1.93413,-4.008924 0,-2.742948 1.68797,-4.360584 1.68796,-1.652802 4.50124,-1.652802 1.72314,0 3.55177,0.808818 0.66815,0.281328 1.01981,0.281328 0.35166,0 0.59783,-0.246162 0.24616,-0.246162 0.59782,-0.914316 h 0.38682 v 5.380398 h -0.42199 q -1.79346,-4.57158 -5.55623,-4.57158 -1.6528,0 -2.46162,0.597822 -0.80881,0.562656 -0.80881,1.441806 0,0.52749 0.24616,0.843984 0.24616,0.281328 0.38682,0.421992 0.14067,0.140664 0.45716,0.316494 0.3165,0.140664 0.52749,0.246162 0.211,0.07033 0.63299,0.210996 0.45716,0.140664 0.66815,0.17583 2.39129,0.597822 3.44627,1.05498 1.05498,0.421992 2.00446,1.05498 1.93413,1.336308 1.93413,4.325418 0,2.953944 -1.7583,4.501248 -1.7583,1.512138 -4.81774,1.512138 -2.18029,0 -4.21992,-1.019814 -0.42199,-0.281328 -0.66815,-0.281328 -0.77365,0 -1.51214,1.301142 z" />
  </g>
</svg>
