<?xml version="1.0" encoding="UTF-8" standalone="no"?>
<svg
   xmlns:dc="http://purl.org/dc/elements/1.1/"
   xmlns:cc="http://creativecommons.org/ns#"
   xmlns:rdf="http://www.w3.org/1999/02/22-rdf-syntax-ns#"
   xmlns:svg="http://www.w3.org/2000/svg"
   xmlns="http://www.w3.org/2000/svg"
   id="svg4"
   version="1.1"
   height="32"
   width="236">
  <style
     id="style23"></style>
  <metadata
     id="metadata10">
    <rdf:RDF>
      <cc:Work
         rdf:about="">
        <dc:format>image/svg+xml</dc:format>
        <dc:type
           rdf:resource="http://purl.org/dc/dcmitype/StillImage" />
        <dc:title></dc:title>
      </cc:Work>
    </rdf:RDF>
  </metadata>
  <defs
     id="defs8" />
  <g
     id="g33"
     style="fill:#87decd;fill-opacity:1;stroke:#505b79;stroke-width:3.464;stroke-linecap:round;stroke-linejoin:miter;stroke-miterlimit:4;stroke-dasharray:none;stroke-opacity:1;paint-order:stroke markers fill">
    <path
       id="path13"
       d="M 46.337488,16.406651 H 44.47369 v 11.78061 h 2.28579 v 0.668154 H 35.33053 v -0.668154 h 2.28579 V 4.9073691 h -2.28579 v -0.668154 h 10.620132 q 4.57158,0 6.470544,0.492324 1.93413,0.457158 2.707782,1.125312 1.687968,1.371474 1.687968,4.3605839 0,2.98911 -1.476972,4.290252 -1.476972,1.265976 -4.501248,1.512138 v 0.105498 q 2.848446,0.386826 3.973758,1.687968 1.125312,1.301142 1.125312,4.360584 v 1.863798 q 0,1.828632 0.17583,2.46162 0.210996,0.632988 0.843984,0.632988 0.632988,0 0.984648,-0.562656 0.386826,-0.597822 0.70332,-2.46162 l 0.597822,0.07033 q -0.386826,2.98911 -1.371474,4.008924 -0.949482,1.019814 -3.833094,1.019814 -2.883612,0 -4.114422,-1.336308 -1.195644,-1.371474 -1.195644,-5.09907 v -2.567118 q 0,-1.969296 -0.52749,-2.883612 -0.492324,-0.914316 -1.863798,-0.914316 z M 44.47369,4.9073691 V 15.738497 h 1.125312 q 2.004462,0 2.953944,-1.23081 0.984648,-1.23081 0.984648,-4.008924 V 9.4789491 q 0,-2.778114 -0.949482,-3.657264 -0.914316,-0.914316 -2.953944,-0.914316 z" />
    <path
       id="path15"
       d="m 70.998908,29.207075 q -4.536414,0 -6.822204,-2.320956 -2.250624,-2.356122 -2.250624,-6.50571 0,-4.184754 2.531952,-6.400212 2.567118,-2.215458 6.50571,-2.215458 7.982682,0 7.666188,8.017848 h -9.916812 v 1.371474 q 0,3.446268 0.87915,5.204568 0.87915,1.7583 3.059442,1.7583 4.079256,0 5.345232,-4.360584 l 0.632988,0.105498 q -0.668154,2.531952 -2.426454,3.938592 -1.723134,1.40664 -5.204568,1.40664 z M 68.748284,19.079267 h 3.622098 v -1.723134 q 0,-2.848446 -0.35166,-3.86826 -0.316494,-1.05498 -1.336308,-1.05498 -0.984648,0 -1.476972,1.125312 -0.457158,1.090146 -0.457158,3.797928 z" />
    <path
       id="path17"
       d="m 81.685141,12.116399 h 8.475006 v 3.235272 q 0.562656,-1.617636 1.723134,-2.602284 1.160478,-0.984648 3.5166,-0.984648 5.450729,0 5.450729,5.872722 v 10.584966 h 1.9693 v 0.632988 h -9.951981 v -0.632988 h 1.441806 v -11.42895 q 0,-2.10996 -0.281328,-2.707782 -0.281328,-0.632988 -1.019814,-0.632988 -1.125312,0 -2.004462,1.476972 -0.843984,1.476972 -0.843984,3.586932 v 9.705816 h 1.512138 v 0.632988 h -9.987144 v -0.632988 h 1.93413 v -15.47304 h -1.93413 z" />
    <path
       id="path19"
       d="m 116.34085,21.927713 v -2.98911 q 0,-3.411102 -0.38683,-4.958406 -0.35166,-1.58247 -1.68797,-1.58247 -0.77365,0 -1.26597,0.457158 -0.45716,0.421992 -0.66816,1.441806 -0.31649,1.58247 -0.31649,4.817742 v 2.742948 q 0,3.833094 0.211,4.606746 0.24616,0.773652 0.49232,1.265976 0.38683,0.843984 1.51214,0.843984 1.37147,0 1.79346,-1.58247 0.3165,-1.125312 0.3165,-5.063904 z m -2.18029,7.279362 q -4.39575,0 -6.64638,-2.250624 -2.25062,-2.250624 -2.25062,-6.435378 0,-4.21992 2.39129,-6.470544 2.42645,-2.28579 6.78703,-2.28579 4.36059,0 6.50571,2.10996 2.14513,2.074794 2.14513,6.365046 0,8.96733 -8.93216,8.96733 z" />
    <path
       id="path21"
       d="m 124.56381,12.749387 v -0.632988 h 10.51464 v 0.632988 h -2.21546 l 4.21992,11.675112 3.79793,-11.675112 h -2.35613 v -0.632988 h 4.74741 v 0.632988 h -1.5473 l -5.20457,16.106028 h -4.00892 l -6.50571,-16.106028 z" />
    <path
       id="path23"
       d="m 152.73909,20.591405 h 1.01981 v -2.707782 q 0,-3.34077 -0.38683,-4.466082 -0.35166,-1.160478 -1.40664,-1.160478 -0.63298,0 -1.16047,0.35166 -0.49233,0.316494 -0.49233,0.914316 0,0.562656 0.211,1.160478 h 0.87915 q 0.28133,0.738486 0.28133,1.793466 0,1.019814 -0.87915,1.793466 -0.87915,0.738486 -2.21546,0.738486 -3.02428,0 -3.02428,-2.918778 0,-4.325418 7.3497,-4.325418 4.18475,0 5.76722,1.441806 1.61764,1.40664 1.61764,5.204568 v 7.138698 q 0,1.828632 1.01981,1.828632 1.19564,0 1.40664,-3.622098 l 0.52749,0.03517 q -0.14066,3.094608 -1.16048,4.255086 -1.01981,1.160478 -3.34077,1.160478 -4.21992,0 -4.85291,-2.602284 -0.45715,1.336308 -1.37147,1.969296 -0.91432,0.632988 -2.67262,0.632988 -5.20456,0 -5.20456,-4.255086 0,-2.496786 1.96929,-3.411102 2.00446,-0.949482 6.11889,-0.949482 z m -1.40664,4.325418 q 0,1.828632 0.17583,2.356122 0.21099,0.52749 0.73848,0.52749 0.56266,0 1.01982,-0.87915 0.49232,-0.914316 0.49232,-2.496786 v -3.270438 h -0.24616 q -2.18029,0 -2.18029,3.200106 z" />
    <path
       id="path25"
       d="m 166.54026,23.826677 v -11.07729 h -1.93413 v -0.632988 h 1.93413 V 7.5799851 l 6.54087,-1.617636 v 6.1540499 h 4.57158 v 0.632988 h -4.57158 v 11.850942 q 0,1.652802 0.3165,2.426454 0.35166,0.773652 1.40664,0.773652 1.05498,0 1.82863,-1.05498 0.80882,-1.05498 1.05498,-2.883612 l 0.59782,0.07033 q -0.28133,2.426454 -1.5473,3.86826 -1.26598,1.40664 -4.18476,1.40664 -2.91877,0 -4.46608,-1.160478 -1.5473,-1.160478 -1.5473,-4.21992 z" />
    <path
       id="path27"
       d="m 191.74675,21.927713 v -2.98911 q 0,-3.411102 -0.38683,-4.958406 -0.35166,-1.58247 -1.68797,-1.58247 -0.77365,0 -1.26597,0.457158 -0.45716,0.421992 -0.66816,1.441806 -0.31649,1.58247 -0.31649,4.817742 v 2.742948 q 0,3.833094 0.21099,4.606746 0.24617,0.773652 0.49233,1.265976 0.38682,0.843984 1.51214,0.843984 1.37147,0 1.79346,-1.58247 0.3165,-1.125312 0.3165,-5.063904 z m -2.1803,7.279362 q -4.39575,0 -6.64637,-2.250624 -2.25062,-2.250624 -2.25062,-6.435378 0,-4.21992 2.39128,-6.470544 2.42646,-2.28579 6.78704,-2.28579 4.36059,0 6.50571,2.10996 2.14513,2.074794 2.14513,6.365046 0,8.96733 -8.93217,8.96733 z" />
    <path
       id="path29"
       d="m 212.95971,13.101047 q -1.30114,0 -2.28579,1.687968 -0.98464,1.687968 -0.98464,4.008924 v 9.424488 h 2.49678 v 0.632988 h -10.97179 v -0.632988 h 1.93413 v -15.47304 h -1.93413 v -0.632988 h 8.47501 v 3.375936 q 0.45715,-1.793466 1.7583,-2.742948 1.30114,-0.984648 2.95394,-0.984648 1.6528,0 2.67262,0.949482 1.05498,0.914316 1.05498,2.63745 0,1.687968 -0.77366,2.602284 -0.77365,0.914316 -2.39128,0.914316 -1.58247,0 -2.35613,-1.05498 -0.73848,-1.05498 -0.17583,-2.918778 h 1.26598 q 0.87915,-1.793466 -0.73849,-1.793466 z" />
    <path
       id="path31"
       d="m 220.72002,29.207075 v -6.294714 h 0.42199 q 0.91432,3.059442 2.46162,4.290252 1.5473,1.23081 3.86826,1.23081 3.58693,0 3.58693,-2.28579 0,-0.984648 -0.87915,-1.476972 -1.37147,-0.773652 -3.5166,-1.195644 -2.39129,-0.632988 -4.00892,-1.687968 -1.93413,-1.265976 -1.93413,-4.008924 0,-2.742948 1.68797,-4.360584 1.68796,-1.652802 4.50124,-1.652802 1.72314,0 3.55177,0.808818 0.66815,0.281328 1.01981,0.281328 0.35166,0 0.59783,-0.246162 0.24616,-0.246162 0.59782,-0.914316 h 0.38682 v 5.380398 h -0.42199 q -1.79346,-4.57158 -5.55623,-4.57158 -1.6528,0 -2.46162,0.597822 -0.80881,0.562656 -0.80881,1.441806 0,0.52749 0.24616,0.843984 0.24616,0.281328 0.38682,0.421992 0.14067,0.140664 0.45716,0.316494 0.3165,0.140664 0.52749,0.246162 0.211,0.07033 0.63299,0.210996 0.45716,0.140664 0.66815,0.17583 2.39129,0.597822 3.44627,1.05498 1.05498,0.421992 2.00446,1.05498 1.93413,1.336308 1.93413,4.325418 0,2.953944 -1.7583,4.501248 -1.7583,1.512138 -4.81774,1.512138 -2.18029,0 -4.21992,-1.019814 -0.42199,-0.281328 -0.66815,-0.281328 -0.77365,0 -1.51214,1.301142 z" />
  </g>
  <g
     style="stroke:#505b79;stroke-opacity:1;stroke-linejoin:round;stroke-linecap:square;paint-order:markers stroke fill"
     transform="rotate(-22.453471)"
     aria-label="Our">
    <path
       id="path42"
       style="font-style:normal;font-variant:normal;font-weight:normal;font-stretch:normal;font-family:Allura;-inkscape-font-specification:Allura;fill:#505b79;fill-opacity:1;stroke-width:0.658409;stroke:#505b79;stroke-opacity:1;stroke-linejoin:round;stroke-linecap:square;paint-order:markers stroke fill"
       d="m 9.8269918,19.95723 q 0,3.924109 -2.7126388,7.031792 -2.7126389,3.081347 -6.0310127,3.8451 -0.97444311,0.237027 -1.86987731,0.237027 -2.44927589,0 -4.05579019,-1.817205 -1.6065143,-1.817204 -1.6065143,-4.582516 0,-3.660746 2.5019485,-6.057349 1.580178,-1.527505 3.87143609,-2.080568 0.68474379,-0.131681 1.26414241,-0.131681 1.316815,0 1.9225499,0.632071 0.6057349,0.605735 0.3423719,0.605735 l -0.4213808,-0.21069 q -0.5530623,-0.210691 -0.9744431,-0.210691 -0.3950445,0 -0.6847438,0.07901 -3.160356,0.737416 -5.1092422,3.792427 -1.5011691,2.370267 -1.5011691,4.766871 0,3.292037 2.3966033,4.26648 0.790089,0.342372 1.7118595,0.342372 0.94810679,0 1.92254988,-0.237027 1.76453212,-0.395044 3.58173682,-2.185913 1.8172047,-1.817204 2.9760019,-4.26648 1.1587972,-2.449276 1.1587972,-4.582516 0,-2.791648 -1.6591869,-4.161136 -1.3958239,-1.106124 -3.6607457,-1.106124 -0.3423719,0 -0.7374164,0.02634 -2.92332931,0.184354 -5.3989415,1.975222 -1.8172047,1.264143 -3.0550108,3.13402 -1.2378061,1.869877 -1.3694876,3.713418 -0.026336,0.421381 -0.263363,0.210691 -0.2106904,-0.237027 -0.2106904,-0.684744 0,-1.896214 1.1061246,-3.713418 1.1324609,-1.843541 3.0023382,-3.186693 1.316815,-0.948106 3.00233819,-1.501169 1.71185949,-0.579398 3.26570121,-0.605735 3.2393649,0 5.26726,1.764533 2.027895,1.764532 2.027895,4.898551 z" />
    <path
       id="path44"
       style="font-style:normal;font-variant:normal;font-weight:normal;font-stretch:normal;font-family:Allura;-inkscape-font-specification:Allura;fill:#505b79;fill-opacity:1;stroke-width:0.658409;stroke:#505b79;stroke-opacity:1;stroke-linejoin:round;stroke-linecap:square;paint-order:markers stroke fill"
       d="m 22.944527,25.145481 q -0.395045,0.711081 -1.42216,1.817205 -1.027116,1.106125 -1.843541,1.71186 -1.053452,0.763752 -2.291258,0.763752 -0.237027,0 -0.632072,-0.237026 -0.368708,-0.210691 -0.500389,-0.632072 -0.131682,-0.42138 -0.131682,-0.816425 0,-1.369487 0.526726,-2.712639 -0.07901,0.05267 -0.737416,1.132461 -0.632071,1.053452 -1.580178,2.001559 -0.921771,0.948107 -1.869878,0.948107 -0.447717,0 -1.027115,-0.237027 -1.053452,-0.474053 -1.053452,-1.738196 0,-1.553841 1.053452,-3.186692 1.079788,-1.659187 1.369487,-1.764532 0.395045,-0.105345 0.737417,-0.105345 0.368708,0 0.737416,0.158017 0.368708,0.131682 -0.105345,0.474054 -1.817205,1.659187 -2.580957,3.687082 -0.2897,0.790089 -0.2897,1.343151 0,0.526726 0.263363,0.684744 0.2897,0.158018 0.553063,0.158018 0.632071,0 1.711859,-0.869098 1.106125,-0.895434 3.028675,-3.687082 0.263363,-0.395045 0.92177,-1.527506 0.658408,-1.158797 0.790089,-1.369487 0.421381,0 0.974443,0.21069 0.579399,0.184354 0.395045,0.50039 -1.264143,2.106904 -1.790869,3.107683 -0.500389,1.00078 -0.684744,2.343931 -0.02634,0.237027 -0.02634,0.605735 0,0.368708 0.210691,0.605735 0.395044,0.421381 1.079788,0.05267 0.71108,-0.395044 1.92255,-1.474832 1.211469,-1.106125 1.948886,-2.159577 0.105345,-0.131681 0.237027,-0.05267 0.158017,0.05267 0.158017,0.131682 0,0.05267 -0.05267,0.131681 z" />
    <path
       id="path46"
       style="font-style:normal;font-variant:normal;font-weight:normal;font-stretch:normal;font-family:Allura;-inkscape-font-specification:Allura;fill:#505b79;fill-opacity:1;stroke-width:0.658409;stroke:#505b79;stroke-opacity:1;stroke-linejoin:round;stroke-linecap:square;paint-order:markers stroke fill"
       d="m 25.77074,29.490971 q -1.343151,0 -1.343151,-1.606514 0,-1.632851 2.317594,-4.003118 0.184354,-0.184354 0.263363,-0.289699 L 27.1929,23.328277 q 0.368708,-0.50039 0.342372,-0.632071 l -0.07901,-0.237027 q -0.105345,-0.316036 -0.869098,-0.447717 -0.763753,-0.158018 -1.237806,-0.158018 -2.370267,3.34471 -2.738975,3.818763 -0.368708,0.474054 -0.50039,0.395045 -0.131681,-0.07901 -0.131681,-0.184354 0,-0.105345 0.158017,-0.316036 1.422161,-1.738196 2.449276,-3.713418 -0.316035,-0.05267 -0.474053,-0.21069 -0.158018,-0.184355 -0.02634,-0.579399 0.131681,-0.421381 0.790089,-1.106125 0.684743,-0.684743 1.185133,-0.92177 0.50039,-0.237027 0.632071,-0.289699 0.131682,-0.05267 0.2897,-0.05267 0.316035,0 -0.210691,0.948107 l -1.027115,1.63285 q 1.185133,0.07901 2.027895,0.07901 l 0.92177,-0.02634 q 0.447717,0 0.658408,0.131681 0.21069,0.105346 0.105345,0.395045 -0.184354,0.50039 -0.921771,1.343151 -1.580178,1.843541 -2.370267,3.924109 -0.184354,0.50039 -0.184354,0.869098 0,0.763753 0.553063,0.763753 0.184354,0 0.684743,-0.2897 0.526726,-0.289699 1.738196,-1.369487 1.21147,-1.106125 1.948886,-2.159577 0.105345,-0.131681 0.237027,-0.05267 0.158018,0.05267 0.158018,0.131682 0,0.05267 -0.05267,0.131681 -0.395044,0.711081 -1.42216,1.817205 -1.027116,1.106125 -2.001559,1.790869 -0.948107,0.737416 -2.054231,0.737416 z" />
  </g>
</svg>
