<?xml version="1.0" standalone="no"?>
<!DOCTYPE svg PUBLIC "-//W3C//DTD SVG 20010904//EN"
 "http://www.w3.org/TR/2001/REC-SVG-20010904/DTD/svg10.dtd">
<svg version="1.0" xmlns="http://www.w3.org/2000/svg"
 width="415.000000pt" height="415.000000pt" viewBox="0 0 415.000000 415.000000"
 preserveAspectRatio="xMidYMid meet">
<metadata>
Created by potrace 1.11, written by Peter Selinger 2001-2013
</metadata>
<g transform="translate(0.000000,415.000000) scale(0.100000,-0.100000)"
fill="#000000" stroke="none">
<path d="M649 3897 c-72 -27 -149 -105 -177 -177 -29 -77 -24 -176 11 -247 15
-28 31 -54 37 -58 27 -17 -5 -20 -188 -21 -210 0 -222 -3 -275 -56 -49 -50
-49 -55 -49 -659 0 -395 3 -577 11 -601 13 -41 64 -92 106 -108 21 -8 157 -12
449 -12 l418 0 279 -278 279 -278 -360 -360 c-198 -198 -360 -364 -360 -369 0
-4 96 -105 214 -222 l215 -215 339 340 c187 186 351 350 366 363 l25 24 362
-362 362 -363 219 219 218 218 -362 362 -362 362 20 22 c10 12 135 137 277
279 l257 257 515 1 c512 0 514 0 554 22 46 27 76 63 88 111 5 19 9 291 8 606
l0 572 -30 42 c-54 76 -81 84 -301 84 l-192 0 30 43 c57 83 65 220 17 313 -26
53 -88 111 -147 140 -70 35 -197 33 -267 -3 -165 -86 -226 -306 -124 -447 16
-23 29 -42 29 -43 0 -2 -485 -3 -1078 -3 -1149 1 -1096 -1 -1058 45 54 66 65
202 23 293 -70 153 -241 223 -398 164z m1409 -1985 c-71 -78 -66 -77 -125 -19
-29 28 -53 54 -53 58 0 4 50 7 111 7 l110 0 -43 -46z"/>
</g>
</svg>
